<?xml version="1.0" encoding="UTF-8" standalone="no"?>
<svg
   xmlns:dc="http://purl.org/dc/elements/1.1/"
   xmlns:cc="http://creativecommons.org/ns#"
   xmlns:rdf="http://www.w3.org/1999/02/22-rdf-syntax-ns#"
   xmlns:svg="http://www.w3.org/2000/svg"
   xmlns="http://www.w3.org/2000/svg"
   xmlns:sodipodi="http://sodipodi.sourceforge.net/DTD/sodipodi-0.dtd"
   xmlns:inkscape="http://www.inkscape.org/namespaces/inkscape"
   viewBox="0 0 666.66669 666.66669"
   height="666.66669"
   width="666.66669"
   xml:space="preserve"
   id="svg2"
   version="1.1"
   sodipodi:docname="vector-art.svg"
   inkscape:version="0.92.2 2405546, 2018-03-11"><sodipodi:namedview
     pagecolor="#ffffff"
     bordercolor="#666666"
     borderopacity="1"
     objecttolerance="10"
     gridtolerance="10"
     guidetolerance="10"
     inkscape:pageopacity="0"
     inkscape:pageshadow="2"
     inkscape:window-width="640"
     inkscape:window-height="480"
     id="namedview243"
     showgrid="false"
     inkscape:zoom="2.0025263"
     inkscape:cx="437.88796"
     inkscape:cy="554.68447"
     inkscape:window-x="0"
     inkscape:window-y="27"
     inkscape:window-maximized="0"
     inkscape:current-layer="g10" /><metadata
     id="metadata8"><rdf:RDF><cc:Work
         rdf:about=""><dc:format>image/svg+xml</dc:format><dc:type
           rdf:resource="http://purl.org/dc/dcmitype/StillImage" /><dc:title /></cc:Work></rdf:RDF></metadata><defs
     id="defs6"><clipPath
       id="clipPath20"
       clipPathUnits="userSpaceOnUse"><path
         id="path18"
         d="M 0,500 H 500 V 0 H 0 Z" /></clipPath><clipPath
       id="clipPath154"
       clipPathUnits="userSpaceOnUse"><path
         id="path152"
         d="M 290.847,404.772 H 417.793 V 360.406 H 290.847 Z" /></clipPath><clipPath
       id="clipPath168"
       clipPathUnits="userSpaceOnUse"><path
         id="path166"
         d="M 290.847,348.387 H 417.793 V 330.406 H 290.847 Z" /></clipPath><clipPath
       id="clipPath182"
       clipPathUnits="userSpaceOnUse"><path
         id="path180"
         d="m 290.847,404.772 h 92.169 V 216.749 h -92.169 z" /></clipPath><clipPath
       id="clipPath198"
       clipPathUnits="userSpaceOnUse"><path
         id="path196"
         d="m 365.516,404.772 h 39.5 V 216.749 h -39.5 z" /></clipPath><clipPath
       id="clipPath364"
       clipPathUnits="userSpaceOnUse"><path
         id="path362"
         d="M 107.738,285.601 H 296.601 V 176.172 H 107.738 Z" /></clipPath><clipPath
       id="clipPath442"
       clipPathUnits="userSpaceOnUse"><path
         id="path440"
         d="M 0,500 H 500 V 0 H 0 Z" /></clipPath><clipPath
       id="clipPath460"
       clipPathUnits="userSpaceOnUse"><path
         id="path458"
         d="M 0,500 H 500 V 0 H 0 Z" /></clipPath><clipPath
       id="clipPath478"
       clipPathUnits="userSpaceOnUse"><path
         id="path476"
         d="M 0,500 H 500 V 0 H 0 Z" /></clipPath><clipPath
       id="clipPath490"
       clipPathUnits="userSpaceOnUse"><path
         id="path488"
         d="M 0,500 H 500 V 0 H 0 Z" /></clipPath></defs><g
     transform="matrix(1.3333333,0,0,-1.3333333,0,666.66667)"
     id="g10"><g
   id="g14"><g
     clip-path="url(#clipPath20)"
     id="g16"><g
       transform="translate(323.3086,58.7529)"
       id="g22"><path
         id="path24"
         style="fill:#7f82db;fill-opacity:1;fill-rule:nonzero;stroke:none"
         d="m 0,0 h -60.067 c -3.662,0 -6.631,2.969 -6.631,6.631 0,3.663 2.969,6.632 6.631,6.632 H 0 c 3.663,0 6.632,-2.969 6.632,-6.632 C 6.632,2.969 3.663,0 0,0" /></g><g
       transform="translate(101.1064,108.4697)"
       id="g26"><path
         id="path28"
         style="fill:#7f82db;fill-opacity:1;fill-rule:nonzero;stroke:none"
         d="m 0,0 h -60.068 c -3.662,0 -6.631,2.969 -6.631,6.632 0,3.662 2.969,6.631 6.631,6.631 H 0 c 3.662,0 6.631,-2.969 6.631,-6.631 C 6.631,2.969 3.662,0 0,0" /></g><g
       transform="translate(89.895,58.7529)"
       id="g30"><path
         id="path32"
         style="fill:#7f82db;fill-opacity:1;fill-rule:nonzero;stroke:none"
         d="m 0,0 h -24.688 c -3.663,0 -6.631,2.969 -6.631,6.631 0,3.663 2.968,6.632 6.631,6.632 H 0 c 3.663,0 6.631,-2.969 6.631,-6.632 C 6.631,2.969 3.663,0 0,0" /></g><g
       transform="translate(116.3818,58.7529)"
       id="g34"><path
         id="path36"
         style="fill:#7f82db;fill-opacity:1;fill-rule:nonzero;stroke:none"
         d="m 0,0 h -9.029 c -3.662,0 -6.631,2.969 -6.631,6.631 0,3.663 2.969,6.632 6.631,6.632 H 0 c 3.662,0 6.631,-2.969 6.631,-6.632 C 6.631,2.969 3.662,0 0,0" /></g><g
       transform="translate(360.1602,65.3838)"
       id="g38"><path
         id="path40"
         style="fill:none;stroke:#24116b;stroke-width:1;stroke-linecap:butt;stroke-linejoin:miter;stroke-miterlimit:10;stroke-dasharray:none;stroke-opacity:1"
         d="m 0,0 h -315.981 l 39.263,89.244 h 237.454 z" /></g><g
       transform="translate(439.4795,175.8984)"
       id="g42"><path
         id="path44"
         style="fill:#7f82db;fill-opacity:1;fill-rule:nonzero;stroke:none"
         d="m 0,0 h -171.079 c -7.044,0 -12.754,5.71 -12.754,12.754 0,7.043 5.71,12.753 12.754,12.753 L 0,25.507 c 7.044,0 12.753,-5.71 12.753,-12.753 C 12.753,5.71 7.044,0 0,0" /></g><path
       id="path46"
       style="fill:#a2a3db;fill-opacity:1;fill-rule:nonzero;stroke:none"
       d="M 427.799,206.743 H 280.841 v -17.837 h 146.958 z" /><path
       id="path48"
       style="fill:#bdbefe;fill-opacity:1;fill-rule:nonzero;stroke:none"
       d="M 427.799,206.743 H 280.841 v 208.035 h 146.958 z" /><path
       id="path50"
       style="fill:#352786;fill-opacity:1;fill-rule:nonzero;stroke:none"
       d="M 417.793,216.749 H 290.848 v 188.023 h 126.945 z" /><path
       id="path52"
       style="fill:#1ea5c9;fill-opacity:1;fill-rule:nonzero;stroke:none"
       d="m 345.297,379.998 h -38.551 v 5.183 h 38.551 z" /><path
       id="path54"
       style="fill:#1ea5c9;fill-opacity:1;fill-rule:nonzero;stroke:none"
       d="M 364.746,379.998 H 354.7 v 5.183 h 10.046 z" /><path
       id="path56"
       style="fill:#1ea5c9;fill-opacity:1;fill-rule:nonzero;stroke:none"
       d="m 383.32,379.998 h -10.047 v 5.183 h 10.047 z" /><path
       id="path58"
       style="fill:#1ea5c9;fill-opacity:1;fill-rule:nonzero;stroke:none"
       d="m 401.894,379.998 h -10.046 v 5.183 h 10.046 z" /><path
       id="path60"
       style="fill:#230a68;fill-opacity:1;fill-rule:nonzero;stroke:none"
       d="m 301.743,379.998 h -5.183 v 5.183 h 5.183 z" /><path
       id="path62"
       style="fill:#230a68;fill-opacity:1;fill-rule:nonzero;stroke:none"
       d="m 412.079,379.998 h -5.183 v 5.183 h 5.183 z" /><path
       id="path64"
       style="fill:#1ea5c9;fill-opacity:1;fill-rule:nonzero;stroke:none"
       d="m 345.297,294.45 h -38.551 v 5.183 h 38.551 z" /><path
       id="path66"
       style="fill:#1ea5c9;fill-opacity:1;fill-rule:nonzero;stroke:none"
       d="M 364.746,294.45 H 354.7 v 5.183 h 10.046 z" /><path
       id="path68"
       style="fill:#1ea5c9;fill-opacity:1;fill-rule:nonzero;stroke:none"
       d="m 383.32,294.45 h -10.047 v 5.183 h 10.047 z" /><path
       id="path70"
       style="fill:#1ea5c9;fill-opacity:1;fill-rule:nonzero;stroke:none"
       d="m 401.894,294.45 h -10.046 v 5.183 h 10.046 z" /><path
       id="path72"
       style="fill:#230a68;fill-opacity:1;fill-rule:nonzero;stroke:none"
       d="m 301.743,294.45 h -5.183 v 5.183 h 5.183 z" /><path
       id="path74"
       style="fill:#230a68;fill-opacity:1;fill-rule:nonzero;stroke:none"
       d="m 412.079,294.45 h -5.183 v 5.183 h 5.183 z" /><path
       id="path76"
       style="fill:#1ea5c9;fill-opacity:1;fill-rule:nonzero;stroke:none"
       d="m 326.021,358.045 h -19.275 v 5.183 h 19.275 z" /><path
       id="path78"
       style="fill:#1ea5c9;fill-opacity:1;fill-rule:nonzero;stroke:none"
       d="m 364.746,358.045 h -32.533 v 5.183 h 32.533 z" /><path
       id="path80"
       style="fill:#1ea5c9;fill-opacity:1;fill-rule:nonzero;stroke:none"
       d="m 383.32,358.045 h -10.047 v 5.183 h 10.047 z" /><path
       id="path82"
       style="fill:#1ea5c9;fill-opacity:1;fill-rule:nonzero;stroke:none"
       d="m 401.894,358.045 h -10.046 v 5.183 h 10.046 z" /><path
       id="path84"
       style="fill:#230a68;fill-opacity:1;fill-rule:nonzero;stroke:none"
       d="m 301.743,358.045 h -5.183 v 5.183 h 5.183 z" /><path
       id="path86"
       style="fill:#230a68;fill-opacity:1;fill-rule:nonzero;stroke:none"
       d="m 412.079,358.045 h -5.183 v 5.183 h 5.183 z" /><path
       id="path88"
       style="fill:#1ea5c9;fill-opacity:1;fill-rule:nonzero;stroke:none"
       d="m 326.021,234.126 h -19.275 v 5.183 h 19.275 z" /><path
       id="path90"
       style="fill:#1ea5c9;fill-opacity:1;fill-rule:nonzero;stroke:none"
       d="m 364.746,234.126 h -32.533 v 5.183 h 32.533 z" /><path
       id="path92"
       style="fill:#1ea5c9;fill-opacity:1;fill-rule:nonzero;stroke:none"
       d="m 383.32,234.126 h -10.047 v 5.183 h 10.047 z" /><path
       id="path94"
       style="fill:#1ea5c9;fill-opacity:1;fill-rule:nonzero;stroke:none"
       d="m 401.894,234.126 h -10.046 v 5.183 h 10.046 z" /><path
       id="path96"
       style="fill:#230a68;fill-opacity:1;fill-rule:nonzero;stroke:none"
       d="m 301.743,234.126 h -5.183 v 5.183 h 5.183 z" /><path
       id="path98"
       style="fill:#230a68;fill-opacity:1;fill-rule:nonzero;stroke:none"
       d="m 412.079,234.126 h -5.183 v 5.183 h 5.183 z" /><path
       id="path100"
       style="fill:#1ea5c9;fill-opacity:1;fill-rule:nonzero;stroke:none"
       d="m 326.021,274.947 h -19.275 v 5.183 h 19.275 z" /><path
       id="path102"
       style="fill:#1ea5c9;fill-opacity:1;fill-rule:nonzero;stroke:none"
       d="m 364.746,274.947 h -32.533 v 5.183 h 32.533 z" /><path
       id="path104"
       style="fill:#1ea5c9;fill-opacity:1;fill-rule:nonzero;stroke:none"
       d="m 383.32,274.947 h -10.047 v 5.183 h 10.047 z" /><path
       id="path106"
       style="fill:#1ea5c9;fill-opacity:1;fill-rule:nonzero;stroke:none"
       d="m 401.894,274.947 h -10.046 v 5.183 h 10.046 z" /><path
       id="path108"
       style="fill:#230a68;fill-opacity:1;fill-rule:nonzero;stroke:none"
       d="m 301.743,274.947 h -5.183 v 5.183 h 5.183 z" /><path
       id="path110"
       style="fill:#230a68;fill-opacity:1;fill-rule:nonzero;stroke:none"
       d="m 412.079,274.947 h -5.183 v 5.183 h 5.183 z" /><path
       id="path112"
       style="fill:#1ea5c9;fill-opacity:1;fill-rule:nonzero;stroke:none"
       d="m 363.344,321.948 h 38.55 v -5.183 h -38.55 z" /><path
       id="path114"
       style="fill:#1ea5c9;fill-opacity:1;fill-rule:nonzero;stroke:none"
       d="m 343.894,321.948 h 10.046 v -5.183 h -10.046 z" /><path
       id="path116"
       style="fill:#1ea5c9;fill-opacity:1;fill-rule:nonzero;stroke:none"
       d="m 325.32,321.948 h 10.046 v -5.183 H 325.32 Z" /><path
       id="path118"
       style="fill:#1ea5c9;fill-opacity:1;fill-rule:nonzero;stroke:none"
       d="m 306.746,321.948 h 10.047 v -5.183 h -10.047 z" /><path
       id="path120"
       style="fill:#230a68;fill-opacity:1;fill-rule:nonzero;stroke:none"
       d="m 406.896,321.948 h 5.183 v -5.183 h -5.183 z" /><path
       id="path122"
       style="fill:#230a68;fill-opacity:1;fill-rule:nonzero;stroke:none"
       d="m 296.561,321.948 h 5.183 v -5.183 h -5.183 z" /><path
       id="path124"
       style="fill:#1ea5c9;fill-opacity:1;fill-rule:nonzero;stroke:none"
       d="m 382.618,343.9 h 19.275 v -5.183 h -19.275 z" /><path
       id="path126"
       style="fill:#1ea5c9;fill-opacity:1;fill-rule:nonzero;stroke:none"
       d="m 343.894,343.9 h 32.534 v -5.183 h -32.534 z" /><path
       id="path128"
       style="fill:#1ea5c9;fill-opacity:1;fill-rule:nonzero;stroke:none"
       d="m 325.32,343.9 h 10.046 v -5.183 H 325.32 Z" /><path
       id="path130"
       style="fill:#1ea5c9;fill-opacity:1;fill-rule:nonzero;stroke:none"
       d="m 306.746,343.9 h 10.047 v -5.183 h -10.047 z" /><path
       id="path132"
       style="fill:#230a68;fill-opacity:1;fill-rule:nonzero;stroke:none"
       d="m 406.896,343.9 h 5.183 v -5.183 h -5.183 z" /><path
       id="path134"
       style="fill:#230a68;fill-opacity:1;fill-rule:nonzero;stroke:none"
       d="m 296.561,343.9 h 5.183 v -5.183 h -5.183 z" /><path
       id="path136"
       style="fill:#1ea5c9;fill-opacity:1;fill-rule:nonzero;stroke:none"
       d="m 382.618,257.967 h 19.275 v -5.183 h -19.275 z" /><path
       id="path138"
       style="fill:#1ea5c9;fill-opacity:1;fill-rule:nonzero;stroke:none"
       d="m 343.894,257.967 h 32.534 v -5.183 h -32.534 z" /><path
       id="path140"
       style="fill:#1ea5c9;fill-opacity:1;fill-rule:nonzero;stroke:none"
       d="m 325.32,257.967 h 10.046 v -5.183 H 325.32 Z" /><path
       id="path142"
       style="fill:#1ea5c9;fill-opacity:1;fill-rule:nonzero;stroke:none"
       d="m 306.746,257.967 h 10.047 v -5.183 h -10.047 z" /><path
       id="path144"
       style="fill:#230a68;fill-opacity:1;fill-rule:nonzero;stroke:none"
       d="m 406.896,257.967 h 5.183 v -5.183 h -5.183 z" /><path
       id="path146"
       style="fill:#230a68;fill-opacity:1;fill-rule:nonzero;stroke:none"
       d="m 296.561,257.967 h 5.183 v -5.183 h -5.183 z" /><g
       id="g148"><g
         id="g150" /><g
         id="g160"><g
           style="opacity:0.05000311"
           id="g158"
           clip-path="url(#clipPath154)"><path
             id="path156"
             style="fill:#f3f3f5;fill-opacity:1;fill-rule:nonzero;stroke:none"
             d="M 417.793,360.406 H 290.848 v 44.366 h 126.945 z" /></g></g></g><g
       id="g162"><g
         id="g164" /><g
         id="g174"><g
           style="opacity:0.05000311"
           id="g172"
           clip-path="url(#clipPath168)"><path
             id="path170"
             style="fill:#f3f3f5;fill-opacity:1;fill-rule:nonzero;stroke:none"
             d="M 417.793,330.406 H 290.848 v 17.98 h 126.945 z" /></g></g></g><g
       id="g176"><g
         id="g178" /><g
         id="g190"><g
           style="opacity:0.05000311"
           id="g188"
           clip-path="url(#clipPath182)"><g
             id="g186"
             transform="translate(356.6201,216.749)"><path
               id="path184"
               style="fill:#f3f3f5;fill-opacity:1;fill-rule:nonzero;stroke:none"
               d="M 0,0 H -65.772 V 188.023 H 26.396 Z" /></g></g></g></g><g
       id="g192"><g
         id="g194" /><g
         id="g206"><g
           style="opacity:0.05000311"
           id="g204"
           clip-path="url(#clipPath198)"><g
             id="g202"
             transform="translate(378.6201,216.749)"><path
               id="path200"
               style="fill:#f3f3f5;fill-opacity:1;fill-rule:nonzero;stroke:none"
               d="M 0,0 H -13.104 L 13.291,188.023 H 26.396 Z" /></g></g></g></g><g
       transform="translate(409.4883,382.5889)"
       id="g208"><path
         id="path210"
         style="fill:none;stroke:#24116b;stroke-width:1;stroke-linecap:round;stroke-linejoin:round;stroke-miterlimit:10;stroke-dasharray:none;stroke-opacity:1"
         d="m 0,0 h -225.262 c -16.733,0 -30.298,-13.565 -30.298,-30.298 0,-16.733 -13.565,-30.298 -30.298,-30.298 h -15.2 c -16.734,0 -30.298,-13.565 -30.298,-30.298 V -240.03" /></g><g
       transform="translate(413.0273,147.9971)"
       id="g212"><path
         id="path214"
         style="fill:#7f82db;fill-opacity:1;fill-rule:nonzero;stroke:none"
         d="m 0,0 h -37.834 c -3.663,0 -6.632,2.969 -6.632,6.631 0,3.663 2.969,6.632 6.632,6.632 H 0 c 3.662,0 6.631,-2.969 6.631,-6.632 C 6.631,2.969 3.662,0 0,0" /></g><g
       transform="translate(462.2549,147.9971)"
       id="g216"><path
         id="path218"
         style="fill:#7f82db;fill-opacity:1;fill-rule:nonzero;stroke:none"
         d="m 0,0 h -20.044 c -3.662,0 -6.631,2.969 -6.631,6.631 0,3.663 2.969,6.632 6.631,6.632 H 0 c 3.662,0 6.631,-2.969 6.631,-6.632 C 6.631,2.969 3.662,0 0,0" /></g><g
       transform="translate(462.125,76.3428)"
       id="g220"><path
         id="path222"
         style="fill:#7f82db;fill-opacity:1;fill-rule:nonzero;stroke:none"
         d="m 0,0 h -60.067 c -3.662,0 -6.631,2.969 -6.631,6.631 0,3.663 2.969,6.632 6.631,6.632 H 0 c 3.663,0 6.632,-2.969 6.632,-6.632 C 6.632,2.969 3.663,0 0,0" /></g><g
       transform="translate(409.4883,341.3081)"
       id="g224"><path
         id="path226"
         style="fill:none;stroke:#24116b;stroke-width:1;stroke-linecap:round;stroke-linejoin:round;stroke-miterlimit:10;stroke-dasharray:none;stroke-opacity:1"
         d="m 0,0 h -300.625 c -26.361,0 -47.731,-21.37 -47.731,-47.731 v -150.394 c 0,-5.105 4.139,-9.245 9.245,-9.245 h 3.963" /></g><g
       transform="translate(320.6279,135.0771)"
       id="g228"><path
         id="path230"
         style="fill:none;stroke:#24116b;stroke-width:1;stroke-linecap:round;stroke-linejoin:round;stroke-miterlimit:10;stroke-dasharray:none;stroke-opacity:1"
         d="m 0,0 h 96.104 c 8.874,0 16.067,7.194 16.067,16.067 0,8.873 -7.193,16.067 -16.067,16.067 H 30.643 c -8.408,0 -15.223,6.816 -15.223,15.223 0,8.408 6.815,15.223 15.223,15.223 h 31.04 c 15.009,0 27.177,12.168 27.177,27.178 v 30.54" /></g><g
       transform="translate(409.4883,319.356)"
       id="g232"><path
         id="path234"
         style="fill:none;stroke:#24116b;stroke-width:1;stroke-linecap:round;stroke-linejoin:round;stroke-miterlimit:10;stroke-dasharray:none;stroke-opacity:1"
         d="m 0,0 v -140.804 c 0,-11.957 -9.693,-21.65 -21.649,-21.65 h -26.929 c -7.699,0 -13.941,-6.241 -13.941,-13.94 0,-7.698 6.242,-13.939 13.941,-13.939 h 59.883 c 2.764,0 5.006,-2.242 5.006,-5.005 0,-2.765 -2.242,-5.006 -7.854,-5.006 h -90.249" /></g><g
       transform="translate(385.0967,312.9873)"
       id="g236"><path
         id="path238"
         style="fill:#aaabe6;fill-opacity:1;fill-rule:nonzero;stroke:none"
         d="m 0,0 h -54.864 c -8.449,0 -15.298,-6.849 -15.298,-15.297 v -74.835 h 34.947 c 11,0 19.917,8.917 19.917,19.917 v 54.918 C -15.298,-6.849 -8.449,0 0,0" /></g><g
       transform="translate(336.0479,222.8555)"
       id="g240"><path
         id="path242"
         style="fill:#bdbefe;fill-opacity:1;fill-rule:nonzero;stroke:none"
         d="m 0,0 h -46.885 c -5.649,0 -10.228,4.579 -10.228,10.229 v 99.201 h 20.328 c 11.867,0 21.487,-9.62 21.487,-21.488 V 15.297 C -15.298,6.849 -8.449,0 0,0" /></g><g
       transform="translate(307.2187,165.5537)"
       id="g244"><path
         id="path246"
         style="fill:#230a68;fill-opacity:1;fill-rule:nonzero;stroke:none"
         d="m 0,0 h -210.099 v 124.207 c 0,3.566 2.892,6.459 6.459,6.459 H -6.458 c 3.566,0 6.458,-2.893 6.458,-6.459 z" /></g><g
       transform="translate(341.96,86.5908)"
       id="g248"><path
         id="path250"
         style="fill:#a7abf4;fill-opacity:1;fill-rule:nonzero;stroke:none"
         d="m 0,0 h -279.581 l 34.741,78.963 h 210.099 z" /></g><g
       transform="translate(335.0332,79.3574)"
       id="g252"><path
         id="path254"
         style="fill:#352786;fill-opacity:1;fill-rule:nonzero;stroke:none"
         d="m 0,0 h -265.728 c -5.583,0 -8.666,3.278 -6.926,7.233 H 6.927 C 8.667,3.278 5.583,0 0,0" /></g><g
       transform="translate(314.4434,106.4746)"
       id="g256"><path
         id="path258"
         style="fill:#8c8fec;fill-opacity:1;fill-rule:nonzero;stroke:none"
         d="m 0,0 h -224.548 l 19.5,51.731 H -19.5 Z" /></g><g
       transform="translate(115.6147,143.9941)"
       id="g260"><path
         id="path262"
         style="fill:#24116b;fill-opacity:1;fill-rule:nonzero;stroke:none"
         d="m 0,0 h 14.065 l 2.226,7.992 H 2.657 Z" /></g><g
       transform="translate(138.3354,143.9941)"
       id="g264"><path
         id="path266"
         style="fill:#24116b;fill-opacity:1;fill-rule:nonzero;stroke:none"
         d="m 0,0 h 14.065 l 1.528,7.992 H 1.96 Z" /></g><g
       transform="translate(161.0557,143.9941)"
       id="g268"><path
         id="path270"
         style="fill:#24116b;fill-opacity:1;fill-rule:nonzero;stroke:none"
         d="m 0,0 h 14.065 l 0.831,7.992 H 1.263 Z" /></g><g
       transform="translate(197.9746,151.9863)"
       id="g272"><path
         id="path274"
         style="fill:#24116b;fill-opacity:1;fill-rule:nonzero;stroke:none"
         d="m 0,0 h -13.633 l -0.565,-7.992 h 14.065 z" /></g><g
       transform="translate(206.4971,143.9941)"
       id="g276"><path
         id="path278"
         style="fill:#24116b;fill-opacity:1;fill-rule:nonzero;stroke:none"
         d="M 0,0 H 14.065 L 13.5,7.992 H -0.133 Z" /></g><g
       transform="translate(229.2178,143.9941)"
       id="g280"><path
         id="path282"
         style="fill:#24116b;fill-opacity:1;fill-rule:nonzero;stroke:none"
         d="M 0,0 H 14.065 L 12.803,7.992 H -0.83 Z" /></g><g
       transform="translate(251.9385,143.9941)"
       id="g284"><path
         id="path286"
         style="fill:#24116b;fill-opacity:1;fill-rule:nonzero;stroke:none"
         d="m 0,0 h 14.065 l -1.96,7.992 H -1.528 Z" /></g><g
       transform="translate(272.4336,151.9863)"
       id="g288"><path
         id="path290"
         style="fill:#24116b;fill-opacity:1;fill-rule:nonzero;stroke:none"
         d="M 0,0 2.226,-7.992 H 16.291 L 13.634,0 Z" /></g><g
       transform="translate(111.064,130.3066)"
       id="g292"><path
         id="path294"
         style="fill:#24116b;fill-opacity:1;fill-rule:nonzero;stroke:none"
         d="m 0,0 h 14.805 l 2.462,8.842 H 2.939 Z" /></g><g
       transform="translate(134.9795,130.3066)"
       id="g296"><path
         id="path298"
         style="fill:#24116b;fill-opacity:1;fill-rule:nonzero;stroke:none"
         d="m 0,0 h 14.804 l 1.691,8.842 H 2.168 Z" /></g><g
       transform="translate(158.8945,130.3066)"
       id="g300"><path
         id="path302"
         style="fill:#24116b;fill-opacity:1;fill-rule:nonzero;stroke:none"
         d="m 0,0 h 14.805 l 0.918,8.842 H 1.396 Z" /></g><g
       transform="translate(197.7612,139.1484)"
       id="g304"><path
         id="path306"
         style="fill:#24116b;fill-opacity:1;fill-rule:nonzero;stroke:none"
         d="m 0,0 h -14.327 l -0.625,-8.842 h 14.805 z" /></g><g
       transform="translate(206.7246,130.3066)"
       id="g308"><path
         id="path310"
         style="fill:#24116b;fill-opacity:1;fill-rule:nonzero;stroke:none"
         d="M 0,0 H 14.805 L 14.18,8.842 H -0.147 Z" /></g><g
       transform="translate(230.6401,130.3066)"
       id="g312"><path
         id="path314"
         style="fill:#24116b;fill-opacity:1;fill-rule:nonzero;stroke:none"
         d="M 0,0 H 14.805 L 13.408,8.842 H -0.919 Z" /></g><g
       transform="translate(254.5547,130.3066)"
       id="g316"><path
         id="path318"
         style="fill:#24116b;fill-opacity:1;fill-rule:nonzero;stroke:none"
         d="M 0,0 H 14.805 L 12.637,8.842 H -1.689 Z" /></g><g
       transform="translate(278.4697,130.3066)"
       id="g320"><path
         id="path322"
         style="fill:#24116b;fill-opacity:1;fill-rule:nonzero;stroke:none"
         d="m 0,0 h 14.806 l -2.94,8.842 H -2.461 Z" /></g><g
       transform="translate(106.0083,115.1016)"
       id="g324"><path
         id="path326"
         style="fill:#24116b;fill-opacity:1;fill-rule:nonzero;stroke:none"
         d="m 0,0 h 15.626 l 2.738,9.831 H 3.269 Z" /></g><g
       transform="translate(131.251,115.1016)"
       id="g328"><path
         id="path330"
         style="fill:#24116b;fill-opacity:1;fill-rule:nonzero;stroke:none"
         d="m 0,0 h 15.626 l 1.879,9.831 H 2.411 Z" /></g><g
       transform="translate(156.4927,115.1016)"
       id="g332"><path
         id="path334"
         style="fill:#24116b;fill-opacity:1;fill-rule:nonzero;stroke:none"
         d="m 0,0 h 15.626 l 1.022,9.831 H 1.553 Z" /></g><g
       transform="translate(182.4297,124.9326)"
       id="g336"><path
         id="path338"
         style="fill:#24116b;fill-opacity:1;fill-rule:nonzero;stroke:none"
         d="M 0,0 -0.694,-9.831 H 24.548 40.174 L 39.479,0 H 24.384 Z" /></g><g
       transform="translate(232.2197,115.1016)"
       id="g340"><path
         id="path342"
         style="fill:#24116b;fill-opacity:1;fill-rule:nonzero;stroke:none"
         d="M 0,0 H 15.626 L 14.074,9.831 H -1.021 Z" /></g><g
       transform="translate(257.4619,115.1016)"
       id="g344"><path
         id="path346"
         style="fill:#24116b;fill-opacity:1;fill-rule:nonzero;stroke:none"
         d="m 0,0 h 15.626 l -2.41,9.831 H -1.879 Z" /></g><g
       transform="translate(282.7041,115.1016)"
       id="g348"><path
         id="path350"
         style="fill:#24116b;fill-opacity:1;fill-rule:nonzero;stroke:none"
         d="m 0,0 h 15.627 l -3.27,9.831 H -2.737 Z" /></g><g
       transform="translate(241.4956,79.3574)"
       id="g352"><path
         id="path354"
         style="fill:#230a68;fill-opacity:1;fill-rule:nonzero;stroke:none"
         d="m 0,0 h -78.652 c -5.583,0 -9.611,3.278 -9.009,7.233 H 9.009 C 9.611,3.278 5.583,0 0,0" /></g><path
       id="path356"
       style="fill:#352786;fill-opacity:1;fill-rule:nonzero;stroke:none"
       d="M 296.602,176.172 H 107.738 v 109.43 h 188.864 z" /><g
       id="g358"><g
         id="g360" /><g
         id="g372"><g
           style="opacity:0.05000311"
           id="g370"
           clip-path="url(#clipPath364)"><g
             id="g368"
             transform="translate(107.7378,285.6016)"><path
               id="path366"
               style="fill:#f3f3f5;fill-opacity:1;fill-rule:nonzero;stroke:none"
               d="M 0,0 H 188.864 L 0,-109.43 Z" /></g></g></g></g><g
       transform="translate(298.7627,332.2852)"
       id="g374"><path
         id="path376"
         style="fill:#a7a8e0;fill-opacity:1;fill-rule:nonzero;stroke:none"
         d="m 0,0 h -83.878 c -8.449,0 -15.298,-6.849 -15.298,-15.297 v -140.816 h 83.878 V -15.297 C -15.298,-6.849 -8.448,0 0,0" /></g><path
       id="path378"
       style="fill:#1ea5c9;fill-opacity:1;fill-rule:nonzero;stroke:none"
       d="m 221.232,299.971 h -10.651 v 4.39 h 10.651 z" /><path
       id="path380"
       style="fill:#177e99;fill-opacity:1;fill-rule:nonzero;stroke:none"
       d="m 246.334,299.971 h -19.217 v 4.39 h 19.217 z" /><path
       id="path382"
       style="fill:#ffffff;fill-opacity:1;fill-rule:nonzero;stroke:none"
       d="m 257.812,290.642 h -39.915 v 4.39 h 39.915 z" /><path
       id="path384"
       style="fill:#1ea5c9;fill-opacity:1;fill-rule:nonzero;stroke:none"
       d="m 274.348,290.642 h -10.651 v 4.39 h 10.651 z" /><path
       id="path386"
       style="fill:#ffffff;fill-opacity:1;fill-rule:nonzero;stroke:none"
       d="m 257.812,281.312 h -39.915 v 4.39 h 39.915 z" /><path
       id="path388"
       style="fill:#1ea5c9;fill-opacity:1;fill-rule:nonzero;stroke:none"
       d="m 274.348,281.312 h -10.651 v 4.39 h 10.651 z" /><path
       id="path390"
       style="fill:#ffffff;fill-opacity:1;fill-rule:nonzero;stroke:none"
       d="m 257.812,271.983 h -39.915 v 4.39 h 39.915 z" /><path
       id="path392"
       style="fill:#1ea5c9;fill-opacity:1;fill-rule:nonzero;stroke:none"
       d="m 274.348,271.983 h -10.651 v 4.39 h 10.651 z" /><path
       id="path394"
       style="fill:#1ea5c9;fill-opacity:1;fill-rule:nonzero;stroke:none"
       d="m 221.232,258.305 h -10.651 v 4.39 h 10.651 z" /><path
       id="path396"
       style="fill:#177e99;fill-opacity:1;fill-rule:nonzero;stroke:none"
       d="m 246.334,258.305 h -19.217 v 4.39 h 19.217 z" /><path
       id="path398"
       style="fill:#ffffff;fill-opacity:1;fill-rule:nonzero;stroke:none"
       d="m 257.812,248.976 h -39.915 v 4.39 h 39.915 z" /><path
       id="path400"
       style="fill:#1ea5c9;fill-opacity:1;fill-rule:nonzero;stroke:none"
       d="m 274.348,248.976 h -10.651 v 4.39 h 10.651 z" /><path
       id="path402"
       style="fill:#ffffff;fill-opacity:1;fill-rule:nonzero;stroke:none"
       d="m 257.812,239.646 h -39.915 v 4.391 h 39.915 z" /><path
       id="path404"
       style="fill:#1ea5c9;fill-opacity:1;fill-rule:nonzero;stroke:none"
       d="m 274.348,239.646 h -10.651 v 4.391 h 10.651 z" /><path
       id="path406"
       style="fill:#ffffff;fill-opacity:1;fill-rule:nonzero;stroke:none"
       d="m 257.812,230.317 h -39.915 v 4.391 h 39.915 z" /><path
       id="path408"
       style="fill:#1ea5c9;fill-opacity:1;fill-rule:nonzero;stroke:none"
       d="m 274.348,230.317 h -10.651 v 4.391 h 10.651 z" /><path
       id="path410"
       style="fill:#1ea5c9;fill-opacity:1;fill-rule:nonzero;stroke:none"
       d="m 221.232,216.639 h -10.651 v 4.391 h 10.651 z" /><path
       id="path412"
       style="fill:#177e99;fill-opacity:1;fill-rule:nonzero;stroke:none"
       d="m 246.334,216.639 h -19.217 v 4.391 h 19.217 z" /><path
       id="path414"
       style="fill:#ffffff;fill-opacity:1;fill-rule:nonzero;stroke:none"
       d="m 257.812,207.31 h -39.915 v 4.391 h 39.915 z" /><path
       id="path416"
       style="fill:#1ea5c9;fill-opacity:1;fill-rule:nonzero;stroke:none"
       d="m 274.348,207.31 h -10.651 v 4.391 h 10.651 z" /><path
       id="path418"
       style="fill:#ffffff;fill-opacity:1;fill-rule:nonzero;stroke:none"
       d="m 257.812,197.981 h -39.915 v 4.39 h 39.915 z" /><path
       id="path420"
       style="fill:#1ea5c9;fill-opacity:1;fill-rule:nonzero;stroke:none"
       d="m 274.348,197.981 h -10.651 v 4.39 h 10.651 z" /><path
       id="path422"
       style="fill:#ffffff;fill-opacity:1;fill-rule:nonzero;stroke:none"
       d="m 257.812,188.652 h -39.915 v 4.39 h 39.915 z" /><path
       id="path424"
       style="fill:#1ea5c9;fill-opacity:1;fill-rule:nonzero;stroke:none"
       d="m 274.348,188.652 h -10.651 v 4.39 h 10.651 z" /><path
       id="path426"
       style="fill:#230a68;fill-opacity:1;fill-rule:nonzero;stroke:none"
       d="m 205.799,398.851 h 79.639 v -27.549 h -79.639 z" /><g
       transform="translate(277.2656,375.1377)"
       id="g428"><path
         id="path430"
         style="fill:#230a68;fill-opacity:1;fill-rule:nonzero;stroke:none"
         d="M 0,0 V -13.994 L -17.192,0 Z" /></g></g></g><g
   aria-label="http://"
   transform="matrix(1,0,0,-1,217.8965,379.2607)"
   style="font-variant:normal;font-weight:800;font-stretch:normal;font-size:17.3621006px;font-family:'Montserrat Extra Bold';-inkscape-font-specification:Montserrat-ExtraBold;writing-mode:lr-tb;fill:#ffffff;fill-opacity:1;fill-rule:nonzero;stroke:none"
   id="text434"><path
     d="M 11.003909,-5.7817151 V 0 H 7.9519777 V -0.94101229 -4.4083459 q 0,-1.2462054 -0.059343,-1.7124728 Q 7.8417691,-6.587086 7.7061277,-6.8075033 7.5280983,-7.1042189 7.2229051,-7.2652931 6.917712,-7.4348448 6.5277429,-7.4348448 q -0.9494899,0 -1.4920555,0.7375501 -0.5425657,0.7290726 -0.5425657,2.0261436 V 0 H 1.4581452 v -13.191127 h 3.0349765 v 5.0865527 q 0.6866847,-0.8308036 1.4581452,-1.2207727 0.7714605,-0.3984466 1.7039952,-0.3984466 1.6446521,0 2.4924109,1.0088329 0.856236,1.008833 0.856236,2.9332456 z"
     style=""
     id="path245" /><path
     d="m 16.631198,-12.190772 v 2.6958732 h 3.12823 v 2.1702626 h -3.12823 v 4.0268544 q 0,0.6612519 0.262805,0.8986243 0.262805,0.2288949 1.042743,0.2288949 h 1.559876 V 0 H 16.894003 Q 15.096754,0 14.342249,-0.74602776 13.596221,-1.5005331 13.596221,-3.2977818 V -7.3246362 H 12.08721 v -2.1702626 h 1.509011 v -2.6958732 z"
     style=""
     id="path247" /><path
     d="m 24.426778,-12.190772 v 2.6958732 h 3.128231 v 2.1702626 h -3.128231 v 4.0268544 q 0,0.6612519 0.262806,0.8986243 0.262805,0.2288949 1.042743,0.2288949 h 1.559876 V 0 H 24.689584 Q 22.892335,0 22.13783,-0.74602776 21.391802,-1.5005331 21.391802,-3.2977818 v -4.0268544 h -1.509011 v -2.1702626 h 1.509011 v -2.6958732 z"
     style=""
     id="path249" /><path
     d="M 31.942602,-1.3733693 V 3.6114526 H 28.907625 V -9.4948988 h 3.034977 v 1.3903245 q 0.627341,-0.8308036 1.390324,-1.2207727 0.762983,-0.3984466 1.754861,-0.3984466 1.754861,0 2.88238,1.398802 1.127519,1.3903245 1.127519,3.5860198 0,2.1956953 -1.127519,3.5944974 -1.127519,1.39032446 -2.88238,1.39032446 -0.991878,0 -1.754861,-0.38996906 -0.762983,-0.39844664 -1.390324,-1.2292503 z m 2.017666,-6.1462514 q -0.974923,0 -1.500533,0.720595 -0.517133,0.7121174 -0.517133,2.0600539 0,1.3479365 0.517133,2.0685315 0.52561,0.7121174 1.500533,0.7121174 0.974922,0 1.483578,-0.7121174 0.517133,-0.7121174 0.517133,-2.0685315 0,-1.3564141 -0.517133,-2.0685315 -0.508656,-0.7121174 -1.483578,-0.7121174 z"
     style=""
     id="path251" /><path
     d="m 41.335971,-9.4948988 h 3.06041 v 3.2808267 h -3.06041 z m 0,6.2140722 h 3.06041 V 0 h -3.06041 z"
     style=""
     id="path253" /><path
     d="m 48.263788,-12.657039 h 1.882025 L 45.678124,1.6107418 h -1.873547 z"
     style=""
     id="path255" /><path
     d="m 54.583593,-12.657039 h 1.882025 L 51.997929,1.6107418 h -1.873547 z"
     style=""
     id="path257" /></g>
<g
   id="g436"><g
     clip-path="url(#clipPath442)"
     id="g438"><path
       id="path444"
       style="fill:#1ea5c9;fill-opacity:1;fill-rule:nonzero;stroke:none"
       d="m 204.859,194.371 h -64.37 v 35.903 h 64.37 z" /><g
       transform="translate(158.667,198.0312)"
       id="g446"><path
         id="path448"
         style="fill:#1ea5c9;fill-opacity:1;fill-rule:nonzero;stroke:none"
         d="M 0,0 V -13.994 L 17.192,0 Z" /></g></g></g><text
   id="text452"
   style="font-variant:normal;font-weight:800;font-stretch:normal;font-size:23.23719978px;font-family:'Montserrat Extra Bold';-inkscape-font-specification:Montserrat-ExtraBold;writing-mode:lr-tb;fill:#ffffff;fill-opacity:1;fill-rule:nonzero;stroke:none"
   transform="matrix(1,0,0,-1,151.5376,204.1328)"><tspan
     id="tspan450"
     y="0"
     x="0 11.967158 17.056105 25.514446 30.603392">&lt; / &gt;</tspan></text>

<g
   id="g454"><g
     clip-path="url(#clipPath460)"
     id="g456"><g
       transform="translate(409.4883,360.4062)"
       id="g462"><path
         id="path464"
         style="fill:none;stroke:#24116b;stroke-width:1;stroke-linecap:round;stroke-linejoin:round;stroke-miterlimit:10;stroke-dasharray:none;stroke-opacity:1"
         d="m 0,0 h 32.179 v -235.878 c 0,-7.593 -6.156,-13.748 -13.748,-13.748 h -42.333 c -3.085,0 -5.586,-2.501 -5.586,-5.586 0,-3.085 2.501,-5.586 5.586,-5.586 h 62.096 c 4.594,0 8.318,-3.723 8.318,-8.317 0,-4.594 -3.724,-8.318 -8.318,-8.318 h -95.26" /></g><path
       id="path466"
       style="fill:#aaabe6;fill-opacity:1;fill-rule:nonzero;stroke:none"
       d="m 401.323,429.923 h -93.246 v 27.333 h 93.246 z" /></g></g><g
   aria-label="SUPPORT"
   transform="scale(1,-1)"
   style="font-variant:normal;font-weight:800;font-stretch:normal;font-size:15.30749989px;font-family:'Montserrat Extra Bold';-inkscape-font-specification:Montserrat-ExtraBold;writing-mode:lr-tb;fill:#dddcfc;fill-opacity:1;fill-rule:nonzero;stroke:none"
   id="text470"><path
     d="m 323.10614,-449.04624 v 2.3619 q -0.91935,-0.41109 -1.79385,-0.62038 -0.8745,-0.20928 -1.65184,-0.20928 -1.03146,0 -1.52477,0.28403 -0.49331,0.28402 -0.49331,0.88197 0,0.44846 0.32888,0.70259 0.33634,0.24666 1.21084,0.42604 l 1.2258,0.24666 q 1.86112,0.37371 2.64592,1.1361 0.78481,0.76238 0.78481,2.16756 0,1.84617 -1.09873,2.75057 -1.09126,0.89692 -3.34104,0.89692 -1.06136,0 -2.13019,-0.2018 -1.06884,-0.20181 -2.13767,-0.59795 v -2.42917 q 1.06883,0.56805 2.06292,0.85955 1.00157,0.28403 1.92839,0.28403 0.94177,0 1.44255,-0.31393 0.50078,-0.31392 0.50078,-0.89692 0,-0.52321 -0.34382,-0.80723 -0.33634,-0.28403 -1.35286,-0.50826 l -1.11368,-0.24665 q -1.67426,-0.35877 -2.45159,-1.14358 -0.76986,-0.78481 -0.76986,-2.11525 0,-1.66678 1.07631,-2.5637 1.07631,-0.89693 3.09439,-0.89693 0.91934,0 1.89101,0.14202 0.97167,0.13453 2.01061,0.41109 z"
     style=""
     id="path260" /><path
     d="m 326.37243,-449.39754 h 2.87763 v 6.68956 q 0,1.38276 0.44846,1.9807 0.45594,0.59048 1.47993,0.59048 1.03146,0 1.47992,-0.59048 0.45594,-0.59794 0.45594,-1.9807 v -6.68956 h 2.87763 v 6.68956 q 0,2.36937 -1.18842,3.5279 -1.18843,1.15852 -3.62507,1.15852 -2.42917,0 -3.61759,-1.15852 -1.18843,-1.15853 -1.18843,-3.5279 z"
     style=""
     id="path263" /><path
     d="m 338.80978,-449.39754 h 4.77611 q 2.1302,0 3.2663,0.94925 1.14358,0.94177 1.14358,2.69077 0,1.75647 -1.14358,2.70572 -1.1361,0.94177 -3.2663,0.94177 h -1.89848 v 3.87172 h -2.87763 z m 2.87763,2.08535 v 3.11681 h 1.59204 q 0.83712,0 1.29306,-0.40362 0.45594,-0.41109 0.45594,-1.15852 0,-0.74744 -0.45594,-1.15106 -0.45594,-0.40361 -1.29306,-0.40361 z"
     style=""
     id="path265" /><path
     d="m 350.02132,-449.39754 h 4.77612 q 2.1302,0 3.2663,0.94925 1.14358,0.94177 1.14358,2.69077 0,1.75647 -1.14358,2.70572 -1.1361,0.94177 -3.2663,0.94177 h -1.89849 v 3.87172 h -2.87763 z m 2.87763,2.08535 v 3.11681 h 1.59204 q 0.83713,0 1.29307,-0.40362 0.45593,-0.41109 0.45593,-1.15852 0,-0.74744 -0.45593,-1.15106 -0.45594,-0.40361 -1.29307,-0.40361 z"
     style=""
     id="path267" /><path
     d="m 366.33039,-447.514 q -1.31549,0 -2.0405,0.97167 -0.72502,0.97167 -0.72502,2.73562 0,1.75647 0.72502,2.72814 0.72501,0.97167 2.0405,0.97167 1.32296,0 2.04797,-0.97167 0.72502,-0.97167 0.72502,-2.72814 0,-1.76395 -0.72502,-2.73562 -0.72501,-0.97167 -2.04797,-0.97167 z m 0,-2.08535 q 2.69077,0 4.21554,1.53972 1.52477,1.53972 1.52477,4.25292 0,2.70572 -1.52477,4.24544 -1.52477,1.53971 -4.21554,1.53971 -2.6833,0 -4.21554,-1.53971 -1.52477,-1.53972 -1.52477,-4.24544 0,-2.7132 1.52477,-4.25292 1.53224,-1.53972 4.21554,-1.53972 z"
     style=""
     id="path269" /><path
     d="m 378.32674,-444.44951 q 0.9044,0 1.29307,-0.33635 0.39614,-0.33634 0.39614,-1.1062 0,-0.76239 -0.39614,-1.09126 -0.38867,-0.32887 -1.29307,-0.32887 h -1.21084 v 2.86268 z m -1.21084,1.98818 v 4.22302 h -2.87764 v -11.15923 h 4.39493 q 2.20494,0 3.22893,0.73996 1.03146,0.73997 1.03146,2.33948 0,1.10621 -0.53815,1.81627 -0.53068,0.71006 -1.60699,1.04641 0.59047,0.13454 1.05388,0.6129 0.47089,0.47088 0.94925,1.43508 l 1.56214,3.16913 h -3.06449 l -1.36034,-2.77299 q -0.41109,-0.83713 -0.83712,-1.14358 -0.41857,-0.30645 -1.12116,-0.30645 z"
     style=""
     id="path271" /><path
     d="m 384.01474,-449.39754 h 10.28472 v 2.17504 h -3.69981 v 8.98419 h -2.87763 v -8.98419 h -3.70728 z"
     style=""
     id="path273" /></g>
<g
   id="g472"><g
     clip-path="url(#clipPath478)"
     id="g474"><g
       transform="translate(354.7002,421.0898)"
       id="g480"><path
         id="path482"
         style="fill:#aaabe6;fill-opacity:1;fill-rule:nonzero;stroke:none"
         d="m 0,0 -4.648,5.868 -4.649,5.868 H 0 9.297 L 4.648,5.868 Z" /></g></g></g></g></svg>